<svg width="830" height="190" viewBox="0 0 830 190" fill="none" xmlns="http://www.w3.org/2000/svg">
<path fill-rule="evenodd" clip-rule="evenodd" d="M81.6485 148.316H101.513V103.092C101.513 88.2993 101.936 57.8687 129.408 57.8687C142.932 57.8687 151.597 65.4764 151.597 84.2842V148.316H171.462V79.635C171.462 56.3895 160.261 40.5401 136.381 40.5401C112.502 40.5401 103.415 55.9668 101.513 61.0385V39.2722V0.388672H81.6485V148.316ZM501.679 148.316H521.543V103.092C521.543 88.2993 521.966 57.8687 549.438 57.8687C562.963 57.8687 571.627 65.4764 571.627 84.2842V148.316H591.491V79.635C591.491 56.3895 580.291 40.5401 556.412 40.5401C532.531 40.5401 523.445 55.9668 521.543 61.0385V39.2722V0.388672H501.679V148.316ZM644.329 148.316H670.11V131.198H648.133C640.948 131.198 637.778 128.029 637.778 120.844V59.9827H666.095V43.4994H637.778V10.7443H617.913V43.4994H594.034V59.9827H617.913V122.535C617.913 139.863 627 148.316 644.329 148.316ZM460.092 189.527H411.276C390.777 189.527 383.382 180.651 383.382 168.394C383.382 157.828 390.777 150.221 396.906 146.417C390.989 142.824 387.608 137.753 387.608 129.3C387.608 118.945 396.061 111.76 403.246 107.11C397.118 101.616 391.623 92.1065 391.623 79.6384C391.623 57.4494 409.374 40.5435 433.887 40.5435C453.33 40.5435 464.953 50.8984 469.812 59.14C471.714 50.0531 476.364 43.502 487.142 43.502H497.919V59.9853H489.255C480.379 59.9853 476.997 62.0986 476.153 74.144L475.73 79.2157C473.828 102.884 457.556 118.099 434.099 118.099C426.914 118.099 420.151 117.254 414.234 114.084C408.529 116.408 404.937 120.213 404.937 124.016C404.937 127.398 407.049 130.779 414.234 130.779H459.669C480.168 130.779 493.481 142.612 493.481 160.153C493.481 179.805 478.265 189.527 460.092 189.527ZM434.099 102.461C447.835 102.461 456.71 93.3744 456.71 79.427C456.71 65.691 447.835 56.1815 434.099 56.1815C420.363 56.1815 411.488 65.691 411.488 79.427C411.488 93.3744 420.363 102.461 434.099 102.461ZM416.771 172.62H457.556C466.009 172.62 473.406 170.296 473.406 160.364C473.406 150.431 466.009 148.319 457.556 148.319H408.529C405.147 150.431 400.922 155.081 400.922 161.632C400.922 170.085 406.627 172.62 416.771 172.62ZM286.985 112.182C286.985 135.428 297.552 151.277 321.432 151.277C342.987 151.277 352.918 136.485 356.3 130.356V148.319H375.742V43.5023H355.877V89.1482C355.877 105.42 354.609 133.949 328.405 133.949C315.303 133.949 306.85 126.342 306.85 107.533V43.5023H286.985V112.182ZM229.369 151.277C201.053 151.277 179.498 127.608 179.498 96.1217C179.498 64.2118 200.418 40.5435 229.369 40.5435C258.321 40.5435 279.03 64.2118 279.03 96.1217C279.03 128.032 257.475 151.277 229.369 151.277ZM229.369 134.16C246.487 134.16 258.321 121.903 258.321 96.333C258.321 70.5515 246.487 57.6608 229.369 57.6608C212.041 57.6608 200.207 70.5515 200.207 96.333C200.207 121.903 212.041 134.16 229.369 134.16ZM76.0765 148.316H50.295C32.9664 148.316 23.8795 139.863 23.8795 122.535V59.9827H0V43.4994H23.8795V10.7443H43.7439V43.4994H72.0613V59.9827H43.7439V120.844C43.7439 128.029 46.9138 131.198 54.0988 131.198H76.0765V148.316ZM676.632 122.579C676.632 140.005 688.336 150.338 702.542 150.338C715.308 150.338 724.417 139.881 726.651 126.768L738.043 60.6752C738.429 58.4258 740.426 56.7572 742.52 56.7572C745.281 56.7572 746.613 58.9596 747.082 60.3604L775.571 145.043L769.561 162.14C766.603 170.17 762.376 171.861 755.191 171.861H734.059V189.611H755.825C774.21 189.611 782.029 183.06 788.792 163.197L830 43.5872H809.079L791.116 97.8975C789.27 103.273 787.317 109.159 785.882 113.479C785.472 114.716 785.104 115.824 784.793 116.755L764.232 56.7572C759.553 43.5872 752.934 38.1074 742.52 38.1074C732.106 38.1074 722.542 46.4148 720.641 58.4258L709.452 123.921C708.633 127.845 707.686 131.595 703.042 131.595C699.262 131.595 696.496 129.094 696.496 122.579V0.388672H676.632V122.579Z" fill="black"/>
</svg>
