<svg width="3772" height="688" viewBox="0 0 3772 688" fill="none" xmlns="http://www.w3.org/2000/svg">
<g clip-path="url(#clip0_4738_1124)">
<g opacity="0.4">
<g opacity="0.56">
<rect x="819.143" y="262.608" width="82.0992" height="80.7381" fill="#2DC004" fill-opacity="0.73"/>
<rect x="2215.86" y="262.608" width="82.0992" height="80.7381" fill="#2DC004" fill-opacity="0.73"/>
<rect x="1475.94" y="424.085" width="82.0992" height="80.7381" fill="#2DC004" fill-opacity="0.73"/>
<rect x="2872.65" y="424.085" width="82.0992" height="80.7381" fill="#2DC004" fill-opacity="0.73"/>
<rect x="899.189" y="668.318" width="82.0992" height="80.7381" transform="rotate(-180 899.189 668.318)" fill="#2DC004" fill-opacity="0.73"/>
<rect x="2295.9" y="668.318" width="82.0992" height="80.7381" transform="rotate(-180 2295.9 668.318)" fill="#2DC004" fill-opacity="0.73"/>
<rect x="1720.18" y="103.153" width="82.0992" height="80.7381" transform="rotate(-180 1720.18 103.153)" fill="#2DC004" fill-opacity="0.73"/>
<rect x="3116.89" y="103.153" width="82.0992" height="80.7381" transform="rotate(-180 3116.89 103.153)" fill="#2DC004" fill-opacity="0.73"/>
<rect x="2379.03" y="262.608" width="82.0992" height="80.7381" fill="#2DC004" fill-opacity="0.73"/>
<rect x="734.991" y="183.89" width="82.0992" height="80.7381" transform="rotate(-180 734.991 183.89)" fill="#2DC004" fill-opacity="0.73"/>
<rect x="2131.7" y="183.89" width="82.0992" height="80.7381" transform="rotate(-180 2131.7 183.89)" fill="#2DC004" fill-opacity="0.73"/>
<rect x="1966.99" y="262.608" width="80.7381" height="82.0992" transform="rotate(90 1966.99 262.608)" fill="#0D3C00" fill-opacity="0.84"/>
<rect x="3363.7" y="262.608" width="80.7381" height="82.0992" transform="rotate(90 3363.7 262.608)" fill="#0D3C00" fill-opacity="0.84"/>
<rect x="1803.82" y="586.067" width="80.7381" height="82.0992" transform="rotate(90 1803.82 586.067)" fill="#0D3C00" fill-opacity="0.84"/>
<rect x="3199.5" y="587.078" width="80.7381" height="82.0992" transform="rotate(90 3199.5 587.078)" fill="#0D3C00" fill-opacity="0.84"/>
<rect x="572.332" y="505.329" width="80.7381" height="82.0992" transform="rotate(-90 572.332 505.329)" fill="#0D3C00" fill-opacity="0.84"/>
<rect x="2132.73" y="505.329" width="80.7381" height="82.0992" transform="rotate(-90 2132.73 505.329)" fill="#0D3C00" fill-opacity="0.84"/>
<rect x="1228.1" y="21.4053" width="80.7381" height="82.0992" transform="rotate(90 1228.1 21.4053)" fill="#0D3C00" fill-opacity="0.84"/>
<rect x="2624.81" y="21.4053" width="80.7381" height="82.0992" transform="rotate(90 2624.81 21.4053)" fill="#0D3C00" fill-opacity="0.84"/>
<rect x="78.1982" y="103.153" width="80.7381" height="82.0992" transform="rotate(-90 78.1982 103.153)" fill="#27A604" fill-opacity="0.78"/>
<rect x="1474.91" y="103.153" width="80.7381" height="82.0992" transform="rotate(-90 1474.91 103.153)" fill="#27A604" fill-opacity="0.78"/>
<rect x="1555.98" y="183.89" width="80.7381" height="82.0992" transform="rotate(-90 1555.98 183.89)" fill="#27A604" fill-opacity="0.78"/>
<rect x="2952.69" y="183.89" width="80.7381" height="82.0992" transform="rotate(-90 2952.69 183.89)" fill="#27A604" fill-opacity="0.78"/>
</g>
<path d="M559.331 -310.902L559.331 820.441M641.43 -310.902L641.43 820.441M723.529 -310.902L723.529 820.441M805.629 -310.902L805.629 820.441M887.728 -310.902L887.728 820.441M969.827 -310.902L969.827 820.441M1051.93 -310.902L1051.93 820.441M1134.03 -310.902L1134.03 820.441M1216.12 -310.902L1216.12 820.441M1298.22 -310.902L1298.22 820.441M1380.32 -310.902L1380.32 820.441M1462.42 -310.902L1462.42 820.441M1544.52 -310.902L1544.52 820.441M1626.62 -310.902V820.441M1708.72 -310.902V820.441M1790.82 -310.902V820.441M1872.92 -310.902V820.441M1955.02 -310.902V820.441M2037.12 -310.902V820.441M2119.21 -310.902V820.441M2201.31 -310.902V820.441M2283.41 -310.902V820.441M2365.51 -310.902V820.441M2447.61 -310.902V820.441M2529.71 -310.902V820.441M2611.81 -310.902V820.441M2693.91 -310.902V820.441M2776.01 -310.902V820.441M2858.11 -310.902V820.441M2940.21 -310.902V820.441M750.212 -431H2748.3M750.212 -350.262H2748.3M750.212 -269.524H2748.3M750.212 -188.786H2748.3M750.212 -108.048H2748.3M750.212 -27.3094H2748.3M750.212 53.4287H2748.3M750.212 134.167H2748.3M750.212 214.905H2748.3M750.212 295.643H2748.3M750.212 376.381H2748.3M750.212 457.119H2748.3M750.212 537.857H2748.3M750.212 618.595H2748.3M750.212 699.334H2748.3M750.212 780.072H2748.3M750.212 860.81H2748.3M750.212 941.548H2748.3" stroke="#868683" stroke-width="0.591089"/>
</g>
<path d="M217.044 596.984C106.523 596.984 24.9658 511.616 24.9658 395.759C24.9658 276.854 105.761 194.535 217.044 194.535C328.327 194.535 408.36 276.854 408.36 395.759C408.36 516.189 327.565 596.984 217.044 596.984ZM217.044 521.525C272.685 521.525 311.558 481.127 311.558 397.284C311.558 312.678 272.685 269.994 217.044 269.994C160.64 269.994 121.767 312.678 121.767 397.284C121.767 481.127 160.64 521.525 217.044 521.525ZM970.278 146.515V51.2387H1069.37V146.515H970.278ZM1067.08 205.968V585.551H974.089V278.378H816.311V585.551H724.083V278.378H564.018V585.551H471.79V278.378H394.044V205.968H471.79V151.851C471.79 88.5872 504.565 52.0009 567.067 52.0009H671.49V127.46H599.08C574.689 127.46 564.018 138.893 564.018 163.284V205.968H724.083V151.851C724.083 88.5872 756.858 52.0009 819.36 52.0009H923.783V127.46H851.373C826.982 127.46 816.311 138.893 816.311 163.284V205.968H1067.08ZM1293.19 596.984C1178.86 596.984 1098.07 517.714 1098.07 394.997C1098.07 274.567 1182.67 194.535 1293.96 194.535C1383.14 194.535 1443.35 244.841 1465.46 307.343L1379.32 338.593C1365.61 297.434 1335.88 269.994 1290.91 269.994C1236.79 269.994 1192.58 311.154 1192.58 394.997C1192.58 480.365 1237.55 521.525 1291.67 521.525C1342.74 521.525 1370.18 491.036 1385.42 445.303L1473.08 475.792C1445.64 548.202 1381.61 596.984 1293.19 596.984ZM1652.74 596.984C1540.69 596.984 1467.52 521.525 1467.52 395.759C1467.52 274.567 1546.03 194.535 1651.21 194.535C1773.17 194.535 1840.24 292.861 1828.05 418.626H1560.51C1563.56 495.61 1605.48 523.811 1654.26 523.811C1707.62 523.811 1732.77 487.225 1746.49 455.212L1830.34 486.463C1805.94 545.916 1753.35 596.984 1652.74 596.984ZM1562.8 350.027H1735.82C1732.77 294.385 1699.23 263.896 1651.21 263.896C1605.48 263.896 1569.66 294.385 1562.8 350.027ZM2090.08 585.551H1997.86V52.0009H2090.08V190.724V266.183C2102.28 243.317 2136.58 194.535 2215.09 194.535C2299.69 194.535 2338.57 250.177 2338.57 333.258V585.551H2245.58V353.838C2245.58 296.672 2218.9 272.281 2176.98 272.281C2091.61 272.281 2090.08 366.795 2090.08 412.528V585.551ZM2558.71 596.984C2448.19 596.984 2366.63 511.616 2366.63 395.759C2366.63 276.854 2447.43 194.535 2558.71 194.535C2669.99 194.535 2750.02 276.854 2750.02 395.759C2750.02 516.189 2669.23 596.984 2558.71 596.984ZM2558.71 521.525C2614.35 521.525 2653.22 481.127 2653.22 397.284C2653.22 312.678 2614.35 269.994 2558.71 269.994C2502.3 269.994 2463.43 312.678 2463.43 397.284C2463.43 481.127 2502.3 521.525 2558.71 521.525ZM2898.72 596.984C2820.21 596.984 2778.29 542.105 2778.29 459.023V205.968H2871.28V436.919C2871.28 495.61 2896.43 518.476 2936.83 518.476C3009.24 518.476 3022.96 444.541 3022.96 384.326V205.968H3115.95V585.551H3023.72V523.049C3008.47 548.202 2973.41 596.984 2898.72 596.984ZM3268.36 585.551H3176.13V205.968H3266.83V289.812C3279.79 259.323 3314.85 199.108 3399.46 199.108C3410.13 199.108 3417.75 199.87 3424.61 201.395V295.909C3410.89 294.385 3397.17 293.623 3383.45 293.623C3303.42 293.623 3268.36 332.496 3268.36 425.486V585.551ZM3577.87 596.222C3492.5 596.222 3420.09 556.587 3404.08 487.225L3489.45 459.785C3494.78 481.127 3513.08 527.623 3581.68 527.623C3625.89 527.623 3649.51 509.329 3649.51 483.414C3649.51 462.072 3638.08 444.541 3593.87 436.157L3542.8 426.248C3469.63 411.766 3419.33 385.851 3419.33 312.678C3419.33 241.792 3482.59 194.535 3574.82 194.535C3669.33 194.535 3716.59 243.317 3732.6 286.001L3654.09 319.538C3643.42 290.574 3618.26 261.61 3571.01 261.61C3528.32 261.61 3509.27 281.427 3509.27 304.294C3509.27 326.398 3520.7 337.831 3566.43 346.216L3615.98 355.362C3675.43 367.558 3745.55 396.522 3745.55 474.268C3745.55 548.202 3683.81 596.222 3577.87 596.222Z" fill="white"/>
</g>
<defs>
<clipPath id="clip0_4738_1124">
<rect width="3772" height="688" fill="white"/>
</clipPath>
</defs>
</svg>
