<svg width="3772" height="688" viewBox="0 0 3772 688" fill="none" xmlns="http://www.w3.org/2000/svg">
<g clip-path="url(#clip0_4725_1270)">
<rect width="3772" height="688" fill="white"/>
<g opacity="0.2">
<g opacity="0.56">
<rect x="819.143" y="262.608" width="82.0992" height="80.7381" fill="#2DC004" fill-opacity="0.73"/>
<rect x="2215.86" y="262.608" width="82.0992" height="80.7381" fill="#2DC004" fill-opacity="0.73"/>
<rect x="1475.94" y="424.085" width="82.0992" height="80.7381" fill="#2DC004" fill-opacity="0.73"/>
<rect x="2872.65" y="424.085" width="82.0992" height="80.7381" fill="#2DC004" fill-opacity="0.73"/>
<rect x="899.19" y="668.318" width="82.0992" height="80.7381" transform="rotate(-180 899.19 668.318)" fill="#2DC004" fill-opacity="0.73"/>
<rect x="2295.9" y="668.318" width="82.0992" height="80.7381" transform="rotate(-180 2295.9 668.318)" fill="#2DC004" fill-opacity="0.73"/>
<rect x="1720.18" y="103.153" width="82.0992" height="80.7381" transform="rotate(-180 1720.18 103.153)" fill="#2DC004" fill-opacity="0.73"/>
<rect x="3116.89" y="103.153" width="82.0992" height="80.7381" transform="rotate(-180 3116.89 103.153)" fill="#2DC004" fill-opacity="0.73"/>
<rect x="2379.03" y="262.608" width="82.0992" height="80.7381" fill="#2DC004" fill-opacity="0.73"/>
<rect x="734.991" y="183.89" width="82.0992" height="80.7381" transform="rotate(-180 734.991 183.89)" fill="#2DC004" fill-opacity="0.73"/>
<rect x="2131.7" y="183.89" width="82.0992" height="80.7381" transform="rotate(-180 2131.7 183.89)" fill="#2DC004" fill-opacity="0.73"/>
<rect x="1966.99" y="262.608" width="80.7381" height="82.0992" transform="rotate(90 1966.99 262.608)" fill="#0D3C00" fill-opacity="0.84"/>
<rect x="3363.7" y="262.608" width="80.7381" height="82.0992" transform="rotate(90 3363.7 262.608)" fill="#0D3C00" fill-opacity="0.84"/>
<rect x="1803.82" y="586.067" width="80.7381" height="82.0992" transform="rotate(90 1803.82 586.067)" fill="#0D3C00" fill-opacity="0.84"/>
<rect x="3199.51" y="587.078" width="80.7381" height="82.0992" transform="rotate(90 3199.51 587.078)" fill="#0D3C00" fill-opacity="0.84"/>
<rect x="572.332" y="505.329" width="80.7381" height="82.0992" transform="rotate(-90 572.332 505.329)" fill="#0D3C00" fill-opacity="0.84"/>
<rect x="2132.73" y="505.329" width="80.7381" height="82.0992" transform="rotate(-90 2132.73 505.329)" fill="#0D3C00" fill-opacity="0.84"/>
<rect x="1228.1" y="21.4053" width="80.7381" height="82.0992" transform="rotate(90 1228.1 21.4053)" fill="#0D3C00" fill-opacity="0.84"/>
<rect x="2624.81" y="21.4053" width="80.7381" height="82.0992" transform="rotate(90 2624.81 21.4053)" fill="#0D3C00" fill-opacity="0.84"/>
<rect x="78.1982" y="103.153" width="80.7381" height="82.0992" transform="rotate(-90 78.1982 103.153)" fill="#27A604" fill-opacity="0.78"/>
<rect x="1474.91" y="103.153" width="80.7381" height="82.0992" transform="rotate(-90 1474.91 103.153)" fill="#27A604" fill-opacity="0.78"/>
<rect x="1555.98" y="183.89" width="80.7381" height="82.0992" transform="rotate(-90 1555.98 183.89)" fill="#27A604" fill-opacity="0.78"/>
<rect x="2952.69" y="183.89" width="80.7381" height="82.0992" transform="rotate(-90 2952.69 183.89)" fill="#27A604" fill-opacity="0.78"/>
</g>
<path d="M559.332 -310.902L559.332 820.441M641.431 -310.902L641.431 820.441M723.53 -310.902L723.53 820.441M805.629 -310.902L805.629 820.441M887.728 -310.902L887.728 820.441M969.827 -310.902L969.827 820.441M1051.93 -310.902L1051.93 820.441M1134.03 -310.902L1134.03 820.441M1216.12 -310.902L1216.12 820.441M1298.22 -310.902L1298.22 820.441M1380.32 -310.902L1380.32 820.441M1462.42 -310.902L1462.42 820.441M1544.52 -310.902L1544.52 820.441M1626.62 -310.902V820.441M1708.72 -310.902V820.441M1790.82 -310.902V820.441M1872.92 -310.902V820.441M1955.02 -310.902V820.441M2037.12 -310.902V820.441M2119.22 -310.902V820.441M2201.31 -310.902V820.441M2283.41 -310.902V820.441M2365.51 -310.902V820.441M2447.61 -310.902V820.441M2529.71 -310.902V820.441M2611.81 -310.902V820.441M2693.91 -310.902V820.441M2776.01 -310.902V820.441M2858.11 -310.902V820.441M2940.21 -310.902V820.441M750.212 -431H2748.3M750.212 -350.262H2748.3M750.212 -269.524H2748.3M750.212 -188.786H2748.3M750.212 -108.048H2748.3M750.212 -27.3094H2748.3M750.212 53.4287H2748.3M750.212 134.167H2748.3M750.212 214.905H2748.3M750.212 295.643H2748.3M750.212 376.381H2748.3M750.212 457.119H2748.3M750.212 537.857H2748.3M750.212 618.595H2748.3M750.212 699.334H2748.3M750.212 780.072H2748.3M750.212 860.81H2748.3M750.212 941.548H2748.3" stroke="#868683" stroke-width="0.591089"/>
</g>
<path d="M90.9564 554H3.54537V83.3253H205.935C306.122 83.3253 370.672 141.823 370.672 231.252C370.672 321.352 306.122 381.195 205.935 381.195H90.9564V554ZM90.9564 158.633V307.232H189.798C245.607 307.232 279.226 277.647 279.226 231.252C279.226 186.874 246.279 158.633 189.798 158.633H90.9564ZM473.59 554H392.23V219.149H472.245V293.112C483.676 266.216 514.606 213.097 589.241 213.097C598.655 213.097 605.379 213.769 611.43 215.114V298.491C599.327 297.146 587.224 296.474 575.121 296.474C504.52 296.474 473.59 330.766 473.59 412.798V554ZM764.856 564.086C667.359 564.086 595.413 488.778 595.413 386.574C595.413 281.681 666.687 209.063 764.856 209.063C863.026 209.063 933.627 281.681 933.627 386.574C933.627 492.812 862.353 564.086 764.856 564.086ZM764.856 497.519C813.941 497.519 848.233 461.882 848.233 387.919C848.233 313.284 813.941 275.63 764.856 275.63C715.099 275.63 680.807 313.284 680.807 387.919C680.807 461.882 715.099 497.519 764.856 497.519ZM1044.62 554H963.265V219.149H1042.61V268.233C1061.43 234.614 1095.05 209.063 1143.47 209.063C1189.86 209.063 1224.15 233.941 1242.31 272.268C1266.51 233.941 1301.48 209.063 1354.6 209.063C1422.51 209.063 1467.56 246.717 1467.56 330.766V554H1385.53V349.593C1385.53 297.819 1361.99 278.319 1325.68 278.319C1257.1 278.319 1255.76 349.593 1255.76 388.591V554H1175.07V349.593C1175.07 297.819 1150.86 278.319 1114.55 278.319C1046.64 278.319 1044.62 349.593 1044.62 388.591V554ZM1598.38 685.117H1517.02V219.149H1596.36V266.216C1611.82 242.01 1648.13 209.063 1706.63 209.063C1791.35 209.063 1848.51 278.992 1848.51 386.574C1848.51 494.157 1791.35 564.086 1706.63 564.086C1648.81 564.086 1614.51 532.483 1598.38 506.933V567.448V685.117ZM1679.06 499.536C1726.8 499.536 1763.11 469.951 1763.11 385.902C1763.11 302.525 1726.8 272.94 1679.06 272.94C1629.31 272.94 1595.01 310.594 1595.01 385.902C1595.01 461.882 1629.31 499.536 1679.06 499.536ZM2092.27 554H1992.76C1938.3 554 1908.04 521.725 1908.04 468.606V283.026H1835.42V219.149H1908.04V114.255H1990.07V219.149H2078.83V283.026H1990.07V455.831C1990.07 477.347 1999.48 487.433 2021 487.433H2092.27V554ZM2300.65 564.086C2242.15 564.086 2206.51 532.483 2190.38 506.933V554H2111.03V83.3253H2192.39V205.701V266.216C2207.86 242.01 2242.82 209.063 2300.65 209.063C2385.37 209.063 2442.52 278.992 2442.52 386.574C2442.52 494.157 2385.37 564.086 2300.65 564.086ZM2273.75 499.536C2320.82 499.536 2357.13 469.951 2357.13 385.902C2357.13 302.525 2320.82 273.612 2273.75 273.612C2223.99 273.612 2189.03 310.594 2189.03 385.902C2189.03 461.882 2223.99 499.536 2273.75 499.536ZM2617.61 564.086C2520.12 564.086 2448.17 488.778 2448.17 386.574C2448.17 281.681 2519.44 209.063 2617.61 209.063C2715.78 209.063 2786.38 281.681 2786.38 386.574C2786.38 492.812 2715.11 564.086 2617.61 564.086ZM2617.61 497.519C2666.7 497.519 2700.99 461.882 2700.99 387.919C2700.99 313.284 2666.7 275.63 2617.61 275.63C2567.86 275.63 2533.56 313.284 2533.56 387.919C2533.56 461.882 2567.86 497.519 2617.61 497.519ZM2960.59 564.086C2863.09 564.086 2791.14 488.778 2791.14 386.574C2791.14 281.681 2862.42 209.063 2960.59 209.063C3058.75 209.063 3129.36 281.681 3129.36 386.574C3129.36 492.812 3058.08 564.086 2960.59 564.086ZM2960.59 497.519C3009.67 497.519 3043.96 461.882 3043.96 387.919C3043.96 313.284 3009.67 275.63 2960.59 275.63C2910.83 275.63 2876.54 313.284 2876.54 387.919C2876.54 461.882 2910.83 497.519 2960.59 497.519ZM3510.65 554H3407.11L3294.14 408.763L3240.35 459.865V554H3158.99V83.3253H3240.35V251.423V367.747L3390.3 219.149H3493.17L3351.3 354.299L3510.65 554ZM3622.39 563.413C3547.08 563.413 3483.2 528.449 3469.08 467.261L3544.39 443.055C3549.1 461.882 3565.23 502.898 3625.75 502.898C3664.75 502.898 3685.59 486.761 3685.59 463.899C3685.59 445.072 3675.51 429.607 3636.51 422.211L3591.46 413.47C3526.91 400.695 3482.53 377.833 3482.53 313.284C3482.53 250.751 3538.34 209.063 3619.7 209.063C3703.07 209.063 3744.76 252.096 3758.88 289.75L3689.63 319.335C3680.21 293.784 3658.02 268.233 3616.34 268.233C3578.68 268.233 3561.87 285.715 3561.87 305.887C3561.87 325.387 3571.96 335.472 3612.3 342.869L3656.01 350.938C3708.45 361.696 3770.31 387.247 3770.31 455.831C3770.31 521.053 3715.85 563.413 3622.39 563.413Z" fill="black"/>
<path d="M90.9564 554H3.54537V83.3253H205.935C306.122 83.3253 370.672 141.823 370.672 231.252C370.672 321.352 306.122 381.195 205.935 381.195H90.9564V554ZM90.9564 158.633V307.232H189.798C245.607 307.232 279.226 277.647 279.226 231.252C279.226 186.874 246.279 158.633 189.798 158.633H90.9564ZM473.59 554H392.23V219.149H472.245V293.112C483.676 266.216 514.606 213.097 589.241 213.097C598.655 213.097 605.379 213.769 611.43 215.114V298.491C599.327 297.146 587.224 296.474 575.121 296.474C504.52 296.474 473.59 330.766 473.59 412.798V554ZM764.856 564.086C667.359 564.086 595.413 488.778 595.413 386.574C595.413 281.681 666.687 209.063 764.856 209.063C863.026 209.063 933.627 281.681 933.627 386.574C933.627 492.812 862.353 564.086 764.856 564.086ZM764.856 497.519C813.941 497.519 848.233 461.882 848.233 387.919C848.233 313.284 813.941 275.63 764.856 275.63C715.099 275.63 680.807 313.284 680.807 387.919C680.807 461.882 715.099 497.519 764.856 497.519ZM1044.62 554H963.265V219.149H1042.61V268.233C1061.43 234.614 1095.05 209.063 1143.47 209.063C1189.86 209.063 1224.15 233.941 1242.31 272.268C1266.51 233.941 1301.48 209.063 1354.6 209.063C1422.51 209.063 1467.56 246.717 1467.56 330.766V554H1385.53V349.593C1385.53 297.819 1361.99 278.319 1325.68 278.319C1257.1 278.319 1255.76 349.593 1255.76 388.591V554H1175.07V349.593C1175.07 297.819 1150.86 278.319 1114.55 278.319C1046.64 278.319 1044.62 349.593 1044.62 388.591V554ZM1598.38 685.117H1517.02V219.149H1596.36V266.216C1611.82 242.01 1648.13 209.063 1706.63 209.063C1791.35 209.063 1848.51 278.992 1848.51 386.574C1848.51 494.157 1791.35 564.086 1706.63 564.086C1648.81 564.086 1614.51 532.483 1598.38 506.933V567.448V685.117ZM1679.06 499.536C1726.8 499.536 1763.11 469.951 1763.11 385.902C1763.11 302.525 1726.8 272.94 1679.06 272.94C1629.31 272.94 1595.01 310.594 1595.01 385.902C1595.01 461.882 1629.31 499.536 1679.06 499.536ZM2092.27 554H1992.76C1938.3 554 1908.04 521.725 1908.04 468.606V283.026H1835.42V219.149H1908.04V114.255H1990.07V219.149H2078.83V283.026H1990.07V455.831C1990.07 477.347 1999.48 487.433 2021 487.433H2092.27V554ZM2300.65 564.086C2242.15 564.086 2206.51 532.483 2190.38 506.933V554H2111.03V83.3253H2192.39V205.701V266.216C2207.86 242.01 2242.82 209.063 2300.65 209.063C2385.37 209.063 2442.52 278.992 2442.52 386.574C2442.52 494.157 2385.37 564.086 2300.65 564.086ZM2273.75 499.536C2320.82 499.536 2357.13 469.951 2357.13 385.902C2357.13 302.525 2320.82 273.612 2273.75 273.612C2223.99 273.612 2189.03 310.594 2189.03 385.902C2189.03 461.882 2223.99 499.536 2273.75 499.536ZM2617.61 564.086C2520.12 564.086 2448.17 488.778 2448.17 386.574C2448.17 281.681 2519.44 209.063 2617.61 209.063C2715.78 209.063 2786.38 281.681 2786.38 386.574C2786.38 492.812 2715.11 564.086 2617.61 564.086ZM2617.61 497.519C2666.7 497.519 2700.99 461.882 2700.99 387.919C2700.99 313.284 2666.7 275.63 2617.61 275.63C2567.86 275.63 2533.56 313.284 2533.56 387.919C2533.56 461.882 2567.86 497.519 2617.61 497.519ZM2960.59 564.086C2863.09 564.086 2791.14 488.778 2791.14 386.574C2791.14 281.681 2862.42 209.063 2960.59 209.063C3058.75 209.063 3129.36 281.681 3129.36 386.574C3129.36 492.812 3058.08 564.086 2960.59 564.086ZM2960.59 497.519C3009.67 497.519 3043.96 461.882 3043.96 387.919C3043.96 313.284 3009.67 275.63 2960.59 275.63C2910.83 275.63 2876.54 313.284 2876.54 387.919C2876.54 461.882 2910.83 497.519 2960.59 497.519ZM3510.65 554H3407.11L3294.14 408.763L3240.35 459.865V554H3158.99V83.3253H3240.35V251.423V367.747L3390.3 219.149H3493.17L3351.3 354.299L3510.65 554ZM3622.39 563.413C3547.08 563.413 3483.2 528.449 3469.08 467.261L3544.39 443.055C3549.1 461.882 3565.23 502.898 3625.75 502.898C3664.75 502.898 3685.59 486.761 3685.59 463.899C3685.59 445.072 3675.51 429.607 3636.51 422.211L3591.46 413.47C3526.91 400.695 3482.53 377.833 3482.53 313.284C3482.53 250.751 3538.34 209.063 3619.7 209.063C3703.07 209.063 3744.76 252.096 3758.88 289.75L3689.63 319.335C3680.21 293.784 3658.02 268.233 3616.34 268.233C3578.68 268.233 3561.87 285.715 3561.87 305.887C3561.87 325.387 3571.96 335.472 3612.3 342.869L3656.01 350.938C3708.45 361.696 3770.31 387.247 3770.31 455.831C3770.31 521.053 3715.85 563.413 3622.39 563.413Z" fill="black"/>
</g>
<defs>
<clipPath id="clip0_4725_1270">
<rect width="3772" height="688" fill="white"/>
</clipPath>
</defs>
</svg>
